<svg xmlns="http://www.w3.org/2000/svg" height="24" width="24" fill="white" viewBox="0 0 24 24">
  <path d="M12 2.2c3.3 0 3.7 0 5 .1 1.2.1 2 .3 2.5.5.6.2 1 .5 1.4.9.4.4.7.8.9 1.4.2.5.4 1.3.5 2.5.1 1.3.1 1.7.1 5s0 3.7-.1 5c-.1 1.2-.3 2-.5 2.5-.2.6-.5 1-.9 1.4-.4.4-.8.7-1.4.9-.5.2-1.3.4-2.5.5-1.3.1-1.7.1-5 .1s-3.7 0-5-.1c-1.2-.1-2-.3-2.5-.5-.6-.2-1-.5-1.4-.9-.4-.4-.7-.8-.9-1.4-.2-.5-.4-1.3-.5-2.5C2.2 15.7 2.2 15.3 2.2 12s0-3.7.1-5c.1-1.2.3-2 .5-2.5.2-.6.5-1 .9-1.4.4-.4.8-.7 1.4-.9.5-.2 1.3-.4 2.5-.5C8.3 2.2 8.7 2.2 12 2.2zm0 1.6c-3.2 0-3.6 0-4.9.1-1.1.1-1.7.2-2.1.4-.5.2-.8.5-1.1.8s-.6.7-.8 1.1c-.2.4-.3 1-.4 2.1-.1 1.3-.1 1.7-.1 4.9s0 3.6.1 4.9c.1 1.1.2 1.7.4 2.1.2.5.5.8.8 1.1s.7.6 1.1.8c.4.2 1 .3 2.1.4 1.3.1 1.7.1 4.9.1s3.6 0 4.9-.1c1.1-.1 1.7-.2 2.1-.4.5-.2.8-.5 1.1-.8s.6-.7.8-1.1c.2-.4.3-1 .4-2.1.1-1.3.1-1.7.1-4.9s0-3.6-.1-4.9c-.1-1.1-.2-1.7-.4-2.1-.2-.5-.5-.8-.8-1.1s-.7-.6-1.1-.8c-.4-.2-1-.3-2.1-.4-1.3-.1-1.7-.1-4.9-.1zm0 4.6a5.8 5.8 0 110 11.6 5.8 5.8 0 010-11.6zm0 9.6a3.8 3.8 0 100-7.6 3.8 3.8 0 000 7.6zm5.5-9.8a1.3 1.3 0 110-2.6 1.3 1.3 0 010 2.6z"></path>
</svg>
